<?xml version="1.0" standalone="no"?>
<!DOCTYPE svg PUBLIC "-//W3C//DTD SVG 20010904//EN"
 "http://www.w3.org/TR/2001/REC-SVG-20010904/DTD/svg10.dtd">
<svg version="1.0" xmlns="http://www.w3.org/2000/svg"
 width="700.000000pt" height="700.000000pt" viewBox="0 0 700.000000 700.000000"
 preserveAspectRatio="xMidYMid meet">
<metadata>
Created by potrace 1.11, written by Peter Selinger 2001-2013
</metadata>
<g transform="translate(0.000000,700.000000) scale(0.100000,-0.100000)"
fill="#000000" stroke="none">
<path d="M204 4923 c3 -137 8 -266 11 -288 2 -22 9 -85 15 -140 13 -126 18
-160 36 -265 8 -47 18 -98 20 -115 14 -82 79 -326 113 -429 137 -406 310 -697
561 -946 225 -222 479 -365 800 -448 263 -69 553 -84 910 -46 79 8 324 48 358
58 9 3 29 7 44 10 39 7 252 62 328 86 78 24 99 24 170 4 532 -151 883 -197
1290 -171 403 26 803 183 1082 424 360 312 619 798 749 1408 7 33 13 62 14 65
0 3 4 26 8 51 4 25 10 58 12 72 3 15 7 39 10 55 2 15 7 52 10 82 4 30 8 62 10
70 2 8 7 51 10 95 4 44 9 100 11 125 8 84 14 490 6 490 -4 0 -20 -12 -35 -26
-135 -125 -735 -298 -1242 -359 -27 -4 -57 -8 -65 -10 -14 -4 -195 -26 -330
-40 -61 -6 -108 -12 -190 -21 -217 -24 -468 -102 -646 -201 -226 -126 -428
-332 -553 -564 -112 -209 -175 -412 -215 -704 -2 -16 -5 -50 -5 -74 -1 -60 -7
-49 -15 26 -28 271 -85 480 -186 686 -214 433 -586 711 -1080 806 -120 23
-128 24 -345 46 -370 38 -792 108 -1050 175 -262 68 -518 170 -587 235 -15 14
-30 25 -34 25 -3 0 -4 -111 0 -247z"/>
</g>
</svg>
